# xmcd
# 
# Track frame offsets:
#     150
#     22920
#     39607
#     55301
#     74582
#     98527
#     118040
#     138036
#     159615
#     177168
#     215345
# 
# Disc length: 4440 seconds
# 
# Revision: 3
# Processed by: cddbd v1.5.1PL0 Copyright (c) Steve Scherf et al.
# Submitted via: BonkEnc v1.0beta1
# 
DISCID=9111560b
DTITLE=Nephew - USADSB
DYEAR=2004
DGENRE=Rock
TTITLE0=Movie Klip
TTITLE1=Superliga
TTITLE2=Blå and Black
TTITLE3=Milk and Wine
TTITLE4=Dårlig Træning
TTITLE5=En Wannabe Darth Vader
TTITLE6=Worst/Best Case Scenario
TTITLE7=Ordenspoliti
TTITLE8=USA DSB
TTITLE9=Bazooka
TTITLE10=DATA
EXTD=Nephew
EXTT0=
EXTT1=
EXTT2=
EXTT3=
EXTT4=
EXTT5=
EXTT6=
EXTT7=
EXTT8=
EXTT9=
EXTT10=
PLAYORDER=
